<?xml version="1.0" encoding="UTF-8"?>
<svg width="456" height="456" viewBox="0 0 456 456" xmlns="http://www.w3.org/2000/svg">
    <!-- Monitor body -->
    <rect x="68" y="88" width="320" height="220" rx="16" ry="16" fill="#ffffff"/>
    <!-- Screen inner area -->
    <rect x="88" y="110" width="280" height="170" rx="6" ry="6" fill="#1e1b4b"/>
    <!-- Screen content - tracking graph bars -->
    <rect x="108" y="220" width="30" height="45" rx="3" fill="#4ade80" opacity="0.9"/>
    <rect x="148" y="195" width="30" height="70" rx="3" fill="#22d3ee" opacity="0.9"/>
    <rect x="188" y="210" width="30" height="55" rx="3" fill="#a78bfa" opacity="0.9"/>
    <rect x="228" y="180" width="30" height="85" rx="3" fill="#f472b6" opacity="0.9"/>
    <rect x="268" y="230" width="30" height="35" rx="3" fill="#fbbf24" opacity="0.9"/>
    <rect x="308" y="205" width="30" height="60" rx="3" fill="#34d399" opacity="0.9"/>
    <!-- Stand -->
    <rect x="198" y="308" width="60" height="8" rx="4" fill="#ffffff"/>
    <rect x="180" y="316" width="96" height="12" rx="6" fill="#ffffff"/>
    <!-- Activity dot -->
    <circle cx="348" cy="130" r="8" fill="#ef4444"/>
    <circle cx="348" cy="130" r="8" fill="#ef4444" opacity="0.5">
        <animate attributeName="opacity" values="0.5;1;0.5" dur="1.5s" repeatCount="indefinite"/>
    </circle>
</svg>